<?xml version="1.0" standalone="no"?><!DOCTYPE svg PUBLIC "-//W3C//DTD SVG 1.1//EN" "http://www.w3.org/Graphics/SVG/1.1/DTD/svg11.dtd"><svg t="1536999825926" class="icon" style="" viewBox="0 0 1024 1024" version="1.1" xmlns="http://www.w3.org/2000/svg" p-id="2287" xmlns:xlink="http://www.w3.org/1999/xlink" width="40" height="40"><defs><style type="text/css"></style></defs><path d="M573.952 517.12h-28.672v39.936h29.184c6.144 0.512 12.288-1.024 17.408-5.12 4.096-4.096 6.144-9.728 5.632-15.36 0.512-5.632-1.536-11.264-6.144-14.848-4.608-3.584-10.752-5.12-17.408-4.608z m-195.072 68.096h37.888l-19.456-57.856-18.432 57.856z m428.544-94.208c18.944-85.504-27.648-172.032-109.056-202.752-91.136-35.84-194.56 7.68-232.96 97.792-22.016-13.824-47.616-21.504-73.216-21.504-69.632-0.512-127.488 52.224-134.144 121.344-71.68 14.848-117.76 84.992-102.912 156.672 12.8 62.464 68.608 106.496 132.096 105.472h449.536v-0.512c75.264-3.072 134.656-64.512 135.168-139.776 0-47.104-24.576-91.136-64.512-116.736z m-370.688 159.744l-10.752-30.72h-57.856l-9.728 30.72h-45.568l61.952-167.424h48.128l60.928 167.424h-47.104z m188.928-74.24c-12.288 10.24-28.672 15.36-44.544 14.336h-35.84v59.904h-44.544v-166.912h78.848c16.384-1.024 32.768 3.584 45.568 13.312 10.752 9.728 16.384 24.064 15.872 38.912 1.024 14.848-4.608 29.696-15.36 40.448z m85.504 74.24h-44.032v-167.424h44.032v167.424z" fill="#0EA2DD" p-id="2288"></path></svg>