<?xml version="1.0" standalone="no"?><!DOCTYPE svg PUBLIC "-//W3C//DTD SVG 1.1//EN" "http://www.w3.org/Graphics/SVG/1.1/DTD/svg11.dtd"><svg t="1544279882302" class="icon" style="" viewBox="0 0 1024 1024" version="1.1" xmlns="http://www.w3.org/2000/svg" p-id="1910" xmlns:xlink="http://www.w3.org/1999/xlink" width="20" height="20"><defs><style type="text/css"></style></defs><path d="M512 0C270.848 0 73.216 186.368 73.216 420.352c0 339.968 402.432 588.8 420.352 595.968l18.432 7.168 18.432-7.168c18.432-7.168 420.352-263.168 420.352-595.968C950.784 186.368 753.152 0 512 0z m0 925.184c-76.8-36.352-347.648-263.168-347.648-504.832 0-182.784 157.184-329.216 347.648-329.216s347.648 150.016 347.648 332.8c0 234.496-270.848 464.896-347.648 501.248z m0-640c-87.552 0-160.768 69.632-160.768 157.184s73.216 157.184 160.768 157.184 160.768-69.632 160.768-157.184-69.12-157.184-160.768-157.184z m0 223.232c-36.352 0-69.632-29.184-69.632-69.632 0-36.352 29.184-69.632 69.632-69.632 36.352 0 69.632 29.184 69.632 69.632s-29.184 69.632-69.632 69.632z" fill="" p-id="1911"></path><path d="M512 438.784m-72.192 0a72.192 72.192 0 1 0 144.384 0 72.192 72.192 0 1 0-144.384 0Z" fill="#FFE600" p-id="1912"></path></svg>