<?xml version="1.0" standalone="no"?><!DOCTYPE svg PUBLIC "-//W3C//DTD SVG 1.1//EN" "http://www.w3.org/Graphics/SVG/1.1/DTD/svg11.dtd"><svg t="1536999815580" class="icon" style="" viewBox="0 0 1024 1024" version="1.1" xmlns="http://www.w3.org/2000/svg" p-id="2147" xmlns:xlink="http://www.w3.org/1999/xlink" width="40" height="40"><defs><style type="text/css"></style></defs><path d="M410.4 449.7h205.1v71.2H410.4zM429.1 557.5c17.8 30 34.6 62.7 48.7 96.4h68.4c20.6-31.8 37.4-63.7 49.6-96.4H429.1z" fill="#228A31" p-id="2148"></path><path d="M512 128c-212.1 0-384 171.9-384 384s171.9 384 384 384 384-171.9 384-384-171.9-384-384-384zM335.5 332.7h354.9v36.5H335.5v-36.5z m364.3 358.6h-1v0.1H324.3v-36.5h112.4c-14-30-28.1-56.2-43.1-77.7l29-18.7H372V412.3h284.7v146.1h-53.4l29 18.7c-14 30-28.1 56.2-42.1 77.7h109.6v36.5z" fill="#228A31" p-id="2149"></path></svg>