<?xml version="1.0" standalone="no"?><!DOCTYPE svg PUBLIC "-//W3C//DTD SVG 1.1//EN" "http://www.w3.org/Graphics/SVG/1.1/DTD/svg11.dtd"><svg t="1536677279601" class="icon" style="" viewBox="0 0 1024 1024" version="1.1" xmlns="http://www.w3.org/2000/svg" p-id="1956" xmlns:xlink="http://www.w3.org/1999/xlink" width="30" height="30"><defs><style type="text/css"></style></defs><path d="M160 32c-12 0-24.8 4.8-33.6 14.4S112 68 112 80v864c0 12 4.8 24.8 14.4 33.6C136 987.2 148 992 160 992h704c12 0 24.8-4.8 33.6-14.4C907.2 968 912 956 912 944V304L640 32H160z" fill="#FF8976" p-id="1957"></path><path d="M912 304H688c-12 0-24.8-4.8-33.6-14.4-9.6-8.8-14.4-21.6-14.4-33.6V32l272 272z" fill="#FFD0C8" p-id="1958"></path><path d="M421.6 564L304 610.4l117.6 46.4v36.8l-162.4-64.8V592l162.4-64.8V564z m116.8-106.4h36.8l-89.6 240h-36.8l89.6-240z m64 200L720 611.2l-117.6-46.4V528l162.4 64v37.6l-162.4 64.8v-36.8z" fill="#FFFFFF" p-id="1959"></path></svg>