<?xml version="1.0" standalone="no"?><!DOCTYPE svg PUBLIC "-//W3C//DTD SVG 1.1//EN" "http://www.w3.org/Graphics/SVG/1.1/DTD/svg11.dtd"><svg t="1536599973379" class="icon" style="" viewBox="0 0 1024 1024" version="1.1" xmlns="http://www.w3.org/2000/svg" p-id="2543" xmlns:xlink="http://www.w3.org/1999/xlink" width="20" height="20"><defs><style type="text/css"></style></defs><path d="M601.6 1024L193.2 780.6l7-474.7L615.6 74.5 1024 317.9l-7 474.7L601.6 1024z" fill="#C7EAF8" p-id="2544"></path><path d="M387.9 507.8L65.6 333.6c-6.5-3.6-13.8-5.1-20.3-5.1-23.2 0-45 20.3-45 48.6v340.5c0 35.6 18.1 67.5 47.9 83.5l322.3 174.2c6.5 3.6 13.8 5.8 20.3 5.8 23.2 0 45-21 45-49.4V591.3c0-34.8-18.1-67.5-47.9-83.5z m-24.6 381.1l-281-151.7c-4.4-2.9-9.4-9.4-9.4-19.6V420l280.9 151.7c5.8 3.6 9.4 11.6 9.4 19.6v297.6zM899 328.5c-6.5 0-13.8 1.5-20.3 5.1l-322.4 175c-29.8 16-47.9 48.6-47.9 84.2v339c0 28.3 21.8 49.4 45 49.4 6.5 0 13.8-1.5 20.3-5.1L896 801.2c29-16 47.9-47.9 47.9-83.5V377.2c0.1-28.3-21.7-48.7-44.9-48.7z m-27.6 388.4c0 10.2-5.1 17.4-9.4 19.6L581 888.9V592.8c0-10.2 5.1-17.4 9.4-19.6l281-153.2v296.9zM848.9 253.8c15.2-8 22.5-21.8 21.1-34.8 1.5-13.8-5.8-26.9-21.1-34.8L520.8 12.8c-14.5-8-31.2-11.6-48.6-11.6-17.4 0-34.1 3.6-49.4 11.6L93.9 183.4c-15.2 8-21.8 21.8-21.1 35.6-0.7 13.1 5.8 26.9 21.1 34.8L422 424.4c14.5 8 31.9 11.6 49.4 11.6h1.5c17.4 0 34.1-3.6 49.4-11.6l326.6-170.6zM471.4 363.4c-5.8 0-11.6-1.5-16-3.6L184 218.9 455.4 77.4c4.4-2.2 10.2-3.6 16.7-3.6 5.8 0 11.6 1.5 16 3.6L759.6 219 487.4 359.8c-3.6 2.1-9.5 3.6-16 3.6z" fill="#8B8AFA" p-id="2545"></path></svg>