<?xml version="1.0" standalone="no"?><!DOCTYPE svg PUBLIC "-//W3C//DTD SVG 1.1//EN" "http://www.w3.org/Graphics/SVG/1.1/DTD/svg11.dtd"><svg t="1536680598013" class="icon" style="" viewBox="0 0 1024 1024" version="1.1" xmlns="http://www.w3.org/2000/svg" p-id="2122" xmlns:xlink="http://www.w3.org/1999/xlink" width="40" height="40"><defs><style type="text/css"></style></defs><path d="M799.02208 336.62976h-61.44v-70.0416a10.7264 10.7264 0 0 0-10.71616-10.71104h-106.9312a10.7264 10.7264 0 0 0-10.71616 10.71104v70.0416h-61.44v-70.0416c0-39.7824 32.36864-72.15104 72.15616-72.15104h106.9312c39.78752 0 72.15616 32.36864 72.15616 72.15104v70.0416z" fill="#E69165" p-id="2123"></path><path d="M444.61568 487.68512c-14.75584 0.42496-24.99072 11.26912-24.56576 26.02496s12.35456 26.01984 27.10528 25.59488l90.71104-0.50688c7.41376 0.83968 13.60896-3.5584 17.7152-7.90016 4.09088-4.34176 7.04-11.8016 6.8608-18.13504-0.43008-14.75072-12.34944-26.01472-27.1104-25.58976l-90.71616 0.512z" fill="#4D73FF" p-id="2124"></path><path d="M587.14112 532.7616c7.59296 7.168 17.17248 10.0608 26.56768 6.62016 9.3952-3.4304 15.52896-9.93792 18.42688-19.52256 2.88256-9.5744-1.63328-19.9936-8.14592-26.1376-7.5776-7.16288-17.17248-10.05056-26.56256-6.61504-9.40032 3.43552-15.5392 9.94304-18.432 19.52256-1.85344 8.47872 1.63328 19.98848 8.14592 26.13248z" fill="#EF9567" p-id="2125"></path><path d="M886.1184 538.78784c14.76608-0.43008 25.00096-11.25888 24.57088-26.02496-0.41984-14.75584-12.34944-26.01984-27.10528-25.58976l-90.7264 0.50176c-7.3984-0.83968-13.60384 3.5584-17.69984 7.89504-4.09088 4.34176-7.05024 11.8016-6.8608 18.12992 0.41984 14.75072 12.34944 26.01472 27.1104 25.59488l90.71104-0.50688z" fill="#4D73FF" p-id="2126"></path><path d="M743.60832 493.7216c-7.59296-7.168-17.17248-10.05056-26.56768-6.61504s-15.5392 9.94304-18.44224 19.52256c-2.88256 9.57952 1.6384 19.99872 8.14592 26.1376 7.59296 7.16288 17.17248 10.05056 26.56256 6.62016 9.39008-3.44064 15.53408-9.93792 18.432-19.52256 1.86368-8.4992-1.62816-20.00896-8.13056-26.14272z" fill="#E69165" p-id="2127"></path><path d="M17.69472 624.11776c0 26.35264 20.02432 47.72864 44.73344 47.72864 24.704 0.01024 44.73856-21.36064 44.74368-47.70816v-0.02048c0.00512-26.35264-20.0192-47.7184-44.72832-47.72352-24.70912 0-44.74368 21.36064-44.7488 47.71328v0.01024zM196.65408 278.13888c0 14.82752 11.35104 26.84416 25.35424 26.84416s25.35424-12.01664 25.35424-26.84416c0-14.8224-11.35104-26.84416-25.35424-26.84416s-25.35424 12.02176-25.35424 26.84416z" fill="#F99969" p-id="2128"></path><path d="M934.15424 829.55776H405.62176c-39.7824 0-72.14592-32.36352-72.14592-72.15104V392.07936c0-39.78752 32.36352-72.15104 72.14592-72.15104h528.53248c39.7824 0 72.14592 32.36864 72.14592 72.15104v365.33248c0 39.7824-32.36352 72.14592-72.14592 72.14592zM405.62176 381.36832a10.72128 10.72128 0 0 0-10.70592 10.71104v365.33248c0 5.90336 4.80256 10.71104 10.70592 10.71104h528.53248a10.72128 10.72128 0 0 0 10.70592-10.71104V392.07936a10.72128 10.72128 0 0 0-10.70592-10.71104H405.62176z" fill="#4D73FF" p-id="2129"></path></svg>