<?xml version="1.0" standalone="no"?><!DOCTYPE svg PUBLIC "-//W3C//DTD SVG 1.1//EN" "http://www.w3.org/Graphics/SVG/1.1/DTD/svg11.dtd"><svg t="1536680641237" class="icon" style="" viewBox="0 0 1024 1024" version="1.1" xmlns="http://www.w3.org/2000/svg" p-id="2414" xmlns:xlink="http://www.w3.org/1999/xlink" width="40" height="40"><defs><style type="text/css"></style></defs><path d="M946.7 778.4l-131-131c-13.1-13.1-30.5-20.3-49-20.3-16.5 0-32.2 5.8-44.7 16.4l-42.7-42.7c37.2-46.6 57.5-103.9 57.5-164.4 0-70.5-27.5-136.7-77.3-186.5S543.4 172.6 473 172.6s-136.7 27.5-186.5 77.3-77.3 116.1-77.3 186.5 27.5 136.7 77.3 186.5c49.8 49.8 116.1 77.3 186.5 77.3 60.5 0 117.9-20.2 164.4-57.5l42.7 42.7c-10.6 12.5-16.4 28.2-16.4 44.7 0 18.5 7.2 35.9 20.3 49l130.9 131c13.1 13.1 30.5 20.3 49 20.3s35.9-7.2 49-20.3l33.7-33.7c13.1-13.1 20.3-30.5 20.3-49 0.1-18.5-7.2-36-20.2-49zM617.5 581c-38.6 38.6-90 59.9-144.6 59.9-54.6-0.1-106-21.3-144.6-59.9s-59.9-90-59.9-144.6c0-54.6 21.3-106 59.9-144.6 38.6-38.6 90-59.9 144.6-59.9 54.6 0 106 21.3 144.6 59.9 38.6 38.6 59.9 90 59.9 144.6 0 54.7-21.3 106-59.9 144.6z m287.1 253.5l-33.7 33.7c-2.6 2.6-5.5 3-7.1 3s-4.6-0.4-7.1-3L725.9 737.3c-2.6-2.6-3-5.5-3-7.1 0-1.5 0.4-4.6 3-7.1l33.7-33.7c2.6-2.6 5.5-3 7.1-3s4.6 0.4 7.1 3l130.9 130.9c2.6 2.6 3 5.5 3 7.1-0.1 1.6-0.5 4.6-3.1 7.1z" fill="#558AF5" p-id="2415"></path><path d="M903.9 252.1c-37 0-67.1-30.1-67.1-67.1 0-37 30.1-67.1 67.1-67.1 37 0 67.1 30.1 67.1 67.1 0 37-30.1 67.1-67.1 67.1z m0-104.5c-20.6 0-37.3 16.7-37.3 37.3s16.7 37.3 37.3 37.3 37.3-16.7 37.3-37.3-16.8-37.3-37.3-37.3z" fill="#F8CF26" p-id="2416"></path><path d="M108.8 708.6c-7.8 0-14.1-6.3-14.1-14.1 0-36.7-33.5-70.2-70.2-70.2-7.8 0-14.1-6.3-14.1-14.1s6.3-14.1 14.1-14.1c36.7 0 70.2-33.5 70.2-70.2 0-7.8 6.3-14.1 14.1-14.1s14.1 6.3 14.1 14.1c0 36.7 33.5 70.2 70.2 70.2 7.8 0 14.1 6.3 14.1 14.1s-6.3 14.1-14.1 14.1c-36.7 0-70.2 33.5-70.2 70.2-0.1 7.8-6.4 14.1-14.1 14.1z m-35.2-98.3c14.3 8.7 26.5 20.8 35.2 35.2 8.7-14.3 20.8-26.5 35.2-35.2-14.3-8.7-26.5-20.8-35.2-35.2-8.7 14.4-20.9 26.5-35.2 35.2z" fill="#66CEDB" p-id="2417"></path></svg>