<?xml version="1.0" standalone="no"?><!DOCTYPE svg PUBLIC "-//W3C//DTD SVG 1.1//EN" "http://www.w3.org/Graphics/SVG/1.1/DTD/svg11.dtd"><svg t="1537004504389" class="icon" style="" viewBox="0 0 1024 1024" version="1.1" xmlns="http://www.w3.org/2000/svg" p-id="1828" xmlns:xlink="http://www.w3.org/1999/xlink" width="40" height="40"><defs><style type="text/css"></style></defs><path d="M157.538462 0h708.923076c86.646154 0 157.538462 70.892308 157.538462 157.538462v708.923076c0 86.646154-70.892308 157.538462-157.538462 157.538462H157.538462c-86.646154 0-157.538462-70.892308-157.538462-157.538462V157.538462C0 70.892308 70.892308 0 157.538462 0z" fill="#F53B4A" p-id="1829"></path><path d="M456.861538 748.307692c-23.630769 0-39.384615-7.876923-55.138461-23.630769L220.553846 551.384615c-31.507692-31.507692-31.507692-78.769231 0-110.276923 31.507692-31.507692 78.769231-31.507692 110.276923 0l126.030769 126.03077 236.307693-259.938462c31.507692-31.507692 78.769231-31.507692 110.276923-7.876923 31.507692 31.507692 31.507692 78.769231 7.876923 110.276923l-299.323077 315.076923c-7.876923 15.753846-31.507692 23.630769-55.138462 23.630769z" fill="#FFFFFF" p-id="1830"></path></svg>