<?xml version="1.0" standalone="no"?><!DOCTYPE svg PUBLIC "-//W3C//DTD SVG 1.1//EN" "http://www.w3.org/Graphics/SVG/1.1/DTD/svg11.dtd"><svg t="1536677242148" class="icon" style="" viewBox="0 0 1024 1024" version="1.1" xmlns="http://www.w3.org/2000/svg" p-id="1537" xmlns:xlink="http://www.w3.org/1999/xlink" width="30" height="30"><defs><style type="text/css"></style></defs><path d="M512 0A513.536 513.536 0 0 0 0 512a513.536 513.536 0 0 0 512 512 513.536 513.536 0 0 0 512-512A513.536 513.536 0 0 0 512 0z m156.032 548.736s-61.696 4.992-47.36-47.104c-2.048-15.232 75.136-51.2 64.896-99.712-16.384-58.24-111.488-75.264-136.064-2.048v231.296c1.024 32.512-64 139.136-196.48 94.208 0 0-88.96-38.4-83.968-133.504 3.84-43.264 44.8-96.256 90.752-113.664 51.2-14.336 70.016 36.352 47.488 58.752-16.384 8.192-117.12 50.176-47.36 117.76 37.76 38.4 101.12 13.952 116.48-22.528 2.048-25.6 1.92-210.944 1.92-236.416s75.904-161.92 214.4-84.48c0 0 155.776 90.88-24.704 237.44z" fill="#D2AD58" p-id="1538"></path></svg>