<?xml version="1.0" standalone="no"?><!DOCTYPE svg PUBLIC "-//W3C//DTD SVG 1.1//EN" "http://www.w3.org/Graphics/SVG/1.1/DTD/svg11.dtd"><svg t="1536677206942" class="icon" style="" viewBox="0 0 1024 1024" version="1.1" xmlns="http://www.w3.org/2000/svg" p-id="1398" xmlns:xlink="http://www.w3.org/1999/xlink" width="30" height="30"><defs><style type="text/css"></style></defs><path d="M707.3792 0H316.6208c-49.0496 0-89.088 38.4-89.088 85.504v852.992c0 47.104 39.936 85.504 89.088 85.504h390.8608c49.0496 0 89.088-38.4 89.088-85.504v-852.992c-0.1024-47.104-40.1408-85.504-89.1904-85.504M458.9568 68.096h106.5984c9.6256 0 17.6128 7.68 17.6128 16.896s-7.9872 16.896-17.6128 16.896H458.9568C449.3312 101.888 441.344 94.208 441.344 84.992c-0.512-9.216 7.4752-16.896 17.6128-16.896m53.3504 921.6c-29.2864 0-53.3504-23.04-53.3504-51.2s23.9616-51.2 53.3504-51.2c29.2864 0 53.3504 23.04 53.3504 51.2s-24.064 51.2-53.3504 51.2M760.7296 852.992H263.2704V170.496h497.4592V852.992z m0 0" p-id="1399"></path></svg>