<?xml version="1.0" standalone="no"?><!DOCTYPE svg PUBLIC "-//W3C//DTD SVG 1.1//EN" "http://www.w3.org/Graphics/SVG/1.1/DTD/svg11.dtd"><svg t="1536677255296" class="icon" style="" viewBox="0 0 1024 1024" version="1.1" xmlns="http://www.w3.org/2000/svg" p-id="1676" xmlns:xlink="http://www.w3.org/1999/xlink" width="30" height="30"><defs><style type="text/css"></style></defs><path d="M643.369543 482.825725h258.644452c56.983672 0 103.730756-46.405865 103.730757-103.730757V103.730756C1005.744752 46.405865 958.997667 0 902.013995 0h-258.644452c-56.983672 0-103.730756 46.405865-103.730756 103.730756v275.705432c0 56.983672 46.405865 103.389537 103.730756 103.389537zM371.076308 0H112.431856C55.106964 0 8.7011 46.405865 8.7011 103.730756v275.705432c0 57.324892 46.405865 103.730756 103.730756 103.730756h258.644452c56.983672 0 103.730756-46.405865 103.730756-103.730756V103.730756c0-57.324892-46.747084-103.730756-103.730756-103.730756z m0 540.833056H112.431856c-57.324892 0-103.730756 46.405865-103.730756 103.730756v275.705432c0 57.324892 46.405865 103.730756 103.730756 103.730756h258.644452c56.983672 0 103.730756-46.405865 103.730756-103.730756v-275.705432c0-57.324892-46.747084-103.730756-103.730756-103.730756z m411.852049-2.729757c-128.298567 0-232.370543 104.413196-232.370543 232.370543 0 128.298567 104.413196 232.370543 232.370543 232.370543 127.957348 0 232.370543-104.413196 232.370543-232.370543 0-127.957348-104.413196-232.370543-232.370543-232.370543zM692.846385 914.127291v0.682439l-1.023659-0.682439h1.023659z m0 0" p-id="1677"></path></svg>