<?xml version="1.0" standalone="no"?><!DOCTYPE svg PUBLIC "-//W3C//DTD SVG 1.1//EN" "http://www.w3.org/Graphics/SVG/1.1/DTD/svg11.dtd"><svg t="1536600004703" class="icon" style="" viewBox="0 0 1024 1024" version="1.1" xmlns="http://www.w3.org/2000/svg" p-id="3122" xmlns:xlink="http://www.w3.org/1999/xlink" width="20" height="20"><defs><style type="text/css"></style></defs><path d="M733.52192 23.35744H290.48832c-43.13088 0-78.19264 35.05152-78.19264 78.1824v820.92032c0 43.14112 35.06176 78.1824 78.19264 78.1824h443.0336a78.2336 78.2336 0 0 0 78.1824-78.1824V101.53984a78.2336 78.2336 0 0 0-78.1824-78.1824zM440.33024 94.76096a19.2512 19.2512 0 0 1 19.29216-19.29216h104.7552A19.2512 19.2512 0 0 1 583.68 94.76096v0.52224a19.2512 19.2512 0 0 1-19.3024 19.28192h-104.7552a19.2512 19.2512 0 0 1-19.29216-19.28192v-0.52224zM512 971.32544c-23.32672 0-42.3424-19.01568-42.3424-42.3424s19.00544-42.35264 42.3424-42.35264 42.35264 19.02592 42.35264 42.35264-19.01568 42.3424-42.35264 42.3424z m234.55744-127.04768c0 7.168-5.85728 13.02528-13.03552 13.02528H290.48832a13.07648 13.07648 0 0 1-13.02528-13.02528V179.72224c0-7.15776 5.86752-13.02528 13.02528-13.02528h443.0336c7.17824 0 13.03552 5.86752 13.03552 13.02528v664.55552z" fill="#f4ea2a" p-id="3123"></path><path d="M525.03552 362.8032v155.71968a26.04032 26.04032 0 0 1-26.0608 26.0608H343.26528c6.92224 90.7776 85.248 161.60768 179.03616 156.0576 84.41856-4.98688 153.81504-74.37312 158.80192-158.80192 5.53984-93.78816-65.28-172.11392-156.06784-179.03616z" fill="#1afa29" p-id="3124"></path><path d="M498.97472 505.48736V362.8032c-83.13856 6.35904-149.3504 72.58112-155.70944 155.71968h142.68416a13.04576 13.04576 0 0 0 13.02528-13.03552z" fill="#1296db" p-id="3125"></path></svg>