<?xml version="1.0" standalone="no"?><!DOCTYPE svg PUBLIC "-//W3C//DTD SVG 1.1//EN" "http://www.w3.org/Graphics/SVG/1.1/DTD/svg11.dtd"><svg t="1537004514001" class="icon" style="" viewBox="0 0 1024 1024" version="1.1" xmlns="http://www.w3.org/2000/svg" p-id="1968" xmlns:xlink="http://www.w3.org/1999/xlink" width="40" height="40"><defs><style type="text/css"></style></defs><path d="M23.571321 740.757736h261.796226v182.387924H23.571321v-182.387924z m356.274717 0h261.796226v182.387924H379.846038v-182.387924z m358.786415 0h261.796226v182.387924H738.632453v-182.387924z m0 0" fill="#6E7782" p-id="1969"></path><path d="M259.284528 699.218113H49.65434l-26.083019 41.73283h261.796226l-26.083019-41.73283z m356.274717 0H405.735849l-25.889811 41.73283H641.449057l-25.889812-41.73283z m358.786415 0H764.715472l-26.083019 41.73283h261.796226l-26.083019-41.73283z m0 0" fill="#3E4959" p-id="1970"></path><path d="M527.649811 510.647547v-407.667924h-33.81132v407.861132H163.646792c-14.297358 0-26.083019 11.592453-26.083018 26.083019v172.920754c0 9.46717 7.535094 17.002264 17.002264 17.002264s17.002264-7.535094 17.002264-17.002264V560.301887c0-8.69434 6.955472-15.649811 15.649811-15.649812h306.620378v169.056604c0 9.46717 7.535094 17.002264 17.002264 17.002264s17.002264-7.535094 17.002264-17.002264v-169.443019h309.325283c8.69434 0 15.649811 6.955472 15.649811 15.649812v149.542641c0 9.46717 7.535094 17.002264 17.002264 17.002264s17.002264-7.535094 17.002265-17.002264v-172.727547c0-14.297358-11.592453-26.083019-26.083019-26.083019H527.649811z" fill="#D3E0EA" p-id="1971"></path><path d="M48.495094 179.296604H975.698113v231.849056H48.495094z" fill="#3E4959" p-id="1972"></path><path d="M48.495094 291.550189H975.698113v7.341886H48.495094zM898.221887 102.206792H125.778113l-77.283019 77.283019h927.009812z" fill="#D3E0EA" p-id="1973"></path><path d="M139.689057 295.221132c0 13.717736 11.01283 24.730566 24.730566 24.730566 13.717736 0 24.730566-11.01283 24.730566-24.730566 0-13.717736-11.01283-24.730566-24.730566-24.730566-13.717736 0-24.730566 11.01283-24.730566 24.730566z m0 0" fill="#43FFC9" p-id="1974"></path><path d="M874.264151 246.726038H898.415094v96.603773h-24.150943zM796.981132 246.726038H821.132075v96.603773h-24.150943z" fill="#F36F36" p-id="1975"></path></svg>