<?xml version="1.0" standalone="no"?><!DOCTYPE svg PUBLIC "-//W3C//DTD SVG 1.1//EN" "http://www.w3.org/Graphics/SVG/1.1/DTD/svg11.dtd"><svg t="1560338992894" class="icon" style="" viewBox="0 0 1024 1024" version="1.1" xmlns="http://www.w3.org/2000/svg" p-id="4207" xmlns:xlink="http://www.w3.org/1999/xlink" width="32" height="32"><defs><style type="text/css"></style></defs><path d="M583.80672 378.016c-19.04-15.104-72.448 10.208-87.552 47.712-18.976 47.648-47.136 117.216-74.752 147.68-29.152 32.032-32.032 7.296-29.152-11.168 6.752-43.52 49.184-144.288 72.416-172.704-8.608-12.768-64.864-10.912-103.936 49.76-14.592 22.912-47.904 99.232-84.896 159.392-8.096 13.024-18.272 3.936-10.4-26.528 8.832-35.2 34.912-131.808 68.48-207.872 88.064-17.44 181.536-29.696 253.184-29.952 9.632-2.592 16.128-11.232 0-11.744-61.728-2.08-154.464 5.216-241.184 16.16 16.672-33.376 34.656-59.904 52.864-71.136-19.808-12.512-59.904-7.552-82.816 26.336a433.824 433.824 0 0 0-28.768 50.464l-1.184 2.656c-63.584 9.888-118.016 21.088-145.632 31.52-28.64 10.912-25.504 45.568-8.064 39.04 36.224-13.536 85.152-27.616 139.616-40.096-34.656 78.176-61.728 170.368-68.224 207.872-16.16 91.168 40.352 90.624 67.968 54.688 29.952-39.328 92.448-177.664 102.112-192.224 2.848-4.96 6.784-2.336 4.704 2.048-69.792 139.36-63.84 193.28-7.296 181.28 25.504-5.472 69.536-49.184 81.024-71.904 2.336-5.472 7.296-4.96 6.24-2.592-44.288 114.912-100.512 207.872-138.272 237.056-34.4 26.272-59.936-30.752 61.696-112.544 18.016-12.192 9.632-28.896-10.656-23.168-62.752 9.888-242.464 66.944-321.408 121.632-6.016 4.192-11.488 7.552-11.232 16.16 0.256 4.96 8.864 3.104 13.056 0.512 102.112-61.216 185.696-85.152 281.568-105.248 1.28 0.544 2.848 0.8 4.128 0.288 4.448-1.056 4.192 1.28 1.312 3.104-3.84 2.304-8.64 4.832-13.536 7.104l-1.056 0.448c-64.608 25.248-103.68 80.992-89.856 109.408 11.744 24.48 75.008 15.616 104.96-0.512 73.472-39.84 126.848-118.016 163.328-225.824 31.776-95.616 71.904-203.936 81.28-207.104zM158.17472 686.72c26.592-31.776 29.696-64.608 9.12-125.568-13.024-38.528-34.656-68.224-18.784-92.192 16.928-25.504 52.896-0.768 22.944 33.312l5.984 4.192c35.968 4.192 53.664-45.056 26.848-59.136-70.88-36.992-132.864 34.144-105.504 116.448 11.744 34.912 28.16 71.904 14.848 101.344-11.424 25.248-33.568 40.096-48.416 40.608-31.008 1.568-10.4-69.536 25.248-87.264 3.104-1.536 7.552-3.616 3.36-8.832-44-4.96-69.792 15.36-84.64 43.744-43.232 82.56 82.048 113.056 148.992 33.376z m852.512-88.064c-119.552-15.616-377.376 5.216-491.232 35.456-33.888 8.832-24.48 26.784-7.296 23.424 0.256 0 7.552-1.824 7.808-1.824 93.536-18.208 320.384-34.144 452.704-8.832 15.904 2.848 63.584-44.8 38.016-48.224z m-393.536-14.048c33.312-16.672 82.816-119.84 115.36-176.352 2.336-4.192 6.528-0.8 4.192 2.048-82.304 141.696-47.392 158.112-14.848 156.032 43.52-2.592 83.616-65.12 92.448-79.2 3.68-5.472 5.76-1.024 3.68 2.912-2.08 6.496-9.632 17.952-16.672 33.568-9.888 22.144 0.512 30.72 9.12 34.656 13.536 6.528 50.528 2.336 56.224-20.32-36.96-0.768 51.584-175.328 60.704-185.984-24.736-14.336-63.008 1.312-80.512 35.68-37.216 73.728-68.48 133.12-88.032 134.144-38.016 2.08 43.776-164.352 57.056-169.568-8.064-11.744-59.904-6.784-88.832 38.016-10.4 16.16-73.952 128.672-89.6 147.2-27.616 32.8-29.696 4.704-21.888-28.16 2.592-11.168 7.04-25.504 12.8-41.376 18.208-41.184 37.76-54.176 49.76-67.488 80.48-89.312 126.592-161.76 108.32-190.112-16.128-25.248-70.048-14.08-104.704 38.016-63.84 95.616-122.656 226.592-130.208 286.56-7.296 59.904 36.192 64.288 65.632 49.76z m314.656-140.672c10.144 24.992 25.504 49.76 16.384 71.648-7.552 18.72-17.44 26.592-28.384 28.384-15.36 2.592-11.232-45.568 15.104-59.904 2.336-1.28 5.728-7.552 2.592-11.168-33.312-1.824-52.096 14.048-62.24 35.168-29.44 61.728 66.688 78.624 113.824 17.952 18.72-24.224 19.552-48.16 1.536-91.68-11.424-27.616-28.896-48.16-17.952-66.432 11.744-19.232 39.84-2.592 18.784 23.2l4.704 2.592c27.36 1.536 38.528-34.912 17.696-44.032-54.944-23.424-106.272 35.68-82.048 94.304z m-280.8-34.624c2.848-6.528 4.704-8.32 9.632-19.296 28.64-63.008 64.608-129.44 89.344-160.416 15.36-16.16 36.96 5.728-2.08 65.632a607.424 607.424 0 0 1-77.44 96.704l0.064-0.064v0.256c-7.296 8.064-13.824 14.848-16.672 18.784-2.08 2.592-4.448 2.08-2.848-1.568z" fill="" p-id="4208"></path></svg>