<?xml version="1.0" standalone="no"?><!DOCTYPE svg PUBLIC "-//W3C//DTD SVG 1.1//EN" "http://www.w3.org/Graphics/SVG/1.1/DTD/svg11.dtd"><svg t="1537005803487" class="icon" style="" viewBox="0 0 1024 1024" version="1.1" xmlns="http://www.w3.org/2000/svg" p-id="2574" xmlns:xlink="http://www.w3.org/1999/xlink" width="30" height="30"><defs><style type="text/css"></style></defs><path d="M904.9 837.9h-701c-3.3 0-6.6-0.3-9.6-0.9l-2.7-9.4c12.5-11.5 27-21.3 43.2-29.3-33.2-16.4-53.4-37.8-64.8-53.5-13.8-19.1-18-34.2-18.1-34.8l-0.2-1.4V139.3c0-7.1 1.4-14 4.1-20.3 2.7-6.3 6.4-11.8 11.2-16.6 9.8-9.8 22.9-15.3 36.9-15.3h703.8c28.8 0 52.2 23.4 52.2 52.2V783c-0.1 30.3-24.7 54.9-55 54.9z m-695.5-11h695.5c24.2 0 43.9-19.7 43.9-43.9V139.3c0-22.7-18.5-41.1-41.2-41.1H203.9c-11 0-21.3 4.3-29.1 12-3.7 3.7-6.7 8.2-8.8 13.1-2.1 5-3.2 10.4-3.2 16v568.4c2 6.2 20.2 57.2 87.5 85.5v10.1c-15.1 6.4-28.8 14.3-40.9 23.6z" fill="#495460" p-id="2575"></path><path d="M959.8 176.1h-11v-36.8c0-22.7-18.5-41.1-41.1-41.1H203.9c-22.7 0-41.2 18.5-41.2 41.1v36.8h-11v-36.8c0-28.8 23.4-52.2 52.2-52.2h703.8c28.8 0 52.1 23.4 52.1 52.2v36.8z" fill="#495460" p-id="2576"></path><path d="M157.2 170.6h797.1v11H157.2zM157.2 243.4h797.1v11H157.2zM918.6 232.6h-721v-39.7h721v39.7z m-710-11h698.9v-17.7H208.6v17.7zM218.4 158.5c-12.5 0-22.7-10.2-22.7-22.7s10.2-22.7 22.7-22.7 22.7 10.2 22.7 22.7-10.2 22.7-22.7 22.7z m0-34.4c-6.5 0-11.7 5.3-11.7 11.7 0 6.4 5.2 11.7 11.7 11.7 6.4 0 11.7-5.2 11.7-11.7 0-6.5-5.3-11.7-11.7-11.7zM271.9 158.5c-12.5 0-22.7-10.2-22.7-22.7s10.2-22.7 22.7-22.7 22.7 10.2 22.7 22.7-10.2 22.7-22.7 22.7z m0-34.4c-6.4 0-11.7 5.3-11.7 11.7 0 6.4 5.2 11.7 11.7 11.7 6.4 0 11.7-5.2 11.7-11.7 0-6.5-5.3-11.7-11.7-11.7zM325.4 158.5c-12.5 0-22.7-10.2-22.7-22.7s10.2-22.7 22.7-22.7 22.7 10.2 22.7 22.7-10.2 22.7-22.7 22.7z m0-34.4c-6.4 0-11.7 5.3-11.7 11.7 0 6.4 5.2 11.7 11.7 11.7 6.4 0 11.7-5.2 11.7-11.7 0-6.5-5.2-11.7-11.7-11.7zM913.1 452.9c-11.9 0-21.6-9.7-21.6-21.6V299.4c0-11.9 9.7-21.6 21.6-21.6 11.9 0 21.6 9.7 21.6 21.6v131.9c0 11.9-9.7 21.6-21.6 21.6z m0-164.1c-5.9 0-10.6 4.8-10.6 10.6v131.9c0 5.9 4.8 10.6 10.6 10.6 5.9 0 10.6-4.8 10.6-10.6V299.4c0-5.9-4.8-10.6-10.6-10.6z" fill="#495460" p-id="2577"></path><path d="M866 248.9h11v583.5h-11zM959.8 181.6H151.7v-42.3c0-28.8 23.4-52.2 52.2-52.2h703.8c28.8 0 52.1 23.4 52.1 52.2v42.3z m-797.1-11h786.1v-31.3c0-22.7-18.5-41.1-41.1-41.1H203.9c-22.7 0-41.2 18.5-41.2 41.1v31.3z" fill="#495460" p-id="2578"></path><path d="M936 139.3v18.5H374.6c3-6.7 4.7-14.2 4.7-22 0-8.9-2.2-17.4-6.1-24.8h534.5c15.6-0.1 28.3 12.6 28.3 28.3z" fill="#F09069" p-id="2579"></path><path d="M151.9 889.5c-0.2-0.6-16.3-56.1-87.7-86.2v-10.1c71.7-30.2 87.6-85.6 87.7-86.2h10.6c0.2 0.5 16.3 56.1 87.7 86.2v10.1c-71.7 30.2-87.6 85.6-87.7 86.2h-10.6z m-72.3-91.2c47.3 23.2 68.8 56.5 77.6 74.9 8.8-18.4 30.3-51.6 77.6-74.9-47.3-23.2-68.8-56.5-77.6-74.9-8.8 18.4-30.2 51.6-77.6 74.9z" fill="#495460" p-id="2580"></path><path d="M157.2 847.8c-10.6-15.5-26.9-33.7-51.5-49.5 24.6-15.8 40.9-34 51.5-49.5 10.6 15.5 26.9 33.7 51.5 49.5-24.6 15.8-40.9 34-51.5 49.5zM263.4 863.7s-6.3 23.2-36.3 35.8c30 12.6 36.3 35.8 36.3 35.8s6.3-23.2 36.3-35.8c-30-12.5-36.3-35.8-36.3-35.8zM314.3 724.1s-6.3 23.2-36.3 35.8c30 12.6 36.3 35.8 36.3 35.8s6.3-23.2 36.3-35.8c-30-12.6-36.3-35.8-36.3-35.8z" fill="#FDDA43" p-id="2581"></path><path d="M258.1 936.9c-0.2-0.9-6.2-20.9-33.1-32.3v-10.1c26.9-11.3 32.9-31.4 33.1-32.3h10.6c0.2 0.8 6.2 20.9 33.1 32.2v10.1c-27.2 11.4-33 32-33.1 32.2l-10.6 0.2z m-18.7-37.3c12.3 7.3 19.7 16.1 24 23.1 4.3-6.9 11.7-15.8 24-23.1-12.3-7.3-19.7-16.2-24-23.1-4.3 6.9-11.7 15.8-24 23.1zM309 797.2c-0.2-0.8-6.2-20.9-33.1-32.2v-10.1c27.2-11.4 33-32 33.1-32.2h10.6c0.2 0.8 6.2 20.9 33.1 32.2V765c-27.2 11.4-33 32-33.1 32.2H309z m-18.7-37.3c12.3 7.3 19.7 16.2 24 23.1 4.3-6.9 11.7-15.8 24-23.1-12.3-7.3-19.7-16.2-24-23.1-4.3 7-11.7 15.8-24 23.1z" fill="#495460" p-id="2582"></path><path d="M251.9 317.5h553.3V390H251.9z" fill="#7ECBE1" p-id="2583"></path><path d="M810.7 395.4H246.4V312h564.3v83.4z m-553.3-11h542.3V323H257.4v61.4z" fill="#495460" p-id="2584"></path><path d="M254.7 457h235.1v11H254.7z" fill="#495460" p-id="2585"></path><path d="M248.8 507.7h241v11h-241z" fill="#495460" p-id="2586"></path><path d="M248.8 558.3h241v11h-241z" fill="#495460" p-id="2587"></path><path d="M248.8 609h241v11h-241z" fill="#495460" p-id="2588"></path><path d="M248.8 659.6h241v11h-241z" fill="#495460" p-id="2589"></path><path d="M373.2 710.3h116.6v11H373.2z" fill="#495460" p-id="2590"></path><path d="M556.3 462.5h240.1v261.6H556.3z" fill="#E7E7E6" p-id="2591"></path><path d="M801.9 729.6H550.8V457h251.1v272.6z m-240.1-11h229.1V468H561.8v250.6z" fill="#495460" p-id="2592"></path><path d="M783.5 711.2H569.2V475.3h214.4v235.9z m-203.3-11h192.4V486.3H580.2v213.9z" fill="#495460" p-id="2593"></path><path d="M766.8 359.2h-11v-11h11v11z m-22 0h-11v-11h11v11z m-22 0h-11v-11h11v11z m-22.1 0h-11v-11h11v11z m-22 0h-11v-11h11v11z m-22 0h-11v-11h11v11z m-22 0h-11v-11h11v11z m-22 0h-11v-11h11v11z m-22 0h-11v-11h11v11z m-22 0h-11v-11h11v11z m-22 0h-11v-11h11v11z m-22 0h-11v-11h11v11z m-22 0h-11v-11h11v11z m-22 0h-11v-11h11v11z m-22 0h-11v-11h11v11z m-22 0h-11v-11h11v11z m-22 0h-11v-11h11v11z m-22.1 0h-11v-11h11v11z m-22 0h-11v-11h11v11z m-22 0h-11v-11h11v11z m-22 0h-11v-11h11v11z m-22 0h-11v-11h11v11z" fill="#495460" p-id="2594"></path><path d="M570.548 484.599l8.159-7.378 203.356 224.883-8.159 7.378z" fill="#495460" p-id="2595"></path><path d="M570.619 702.096l203.356-224.913 8.16 7.377L578.78 709.474z" fill="#495460" p-id="2596"></path></svg>