<?xml version="1.0" standalone="no"?><!DOCTYPE svg PUBLIC "-//W3C//DTD SVG 1.1//EN" "http://www.w3.org/Graphics/SVG/1.1/DTD/svg11.dtd"><svg t="1536600010506" class="icon" style="" viewBox="0 0 1137 1024" version="1.1" xmlns="http://www.w3.org/2000/svg" p-id="3263" xmlns:xlink="http://www.w3.org/1999/xlink" width="22.20703125" height="20"><defs><style type="text/css"></style></defs><path d="M910.791111 568.376889a49.834667 49.834667 0 0 1-49.265778-50.460445c0-27.761778 22.072889-50.289778 49.208889-50.289777 27.192889 0 49.265778 22.528 49.265778 50.289777a49.834667 49.834667 0 0 1-49.265778 50.460445m-253.326222 0a49.834667 49.834667 0 0 1-49.265778-50.460445c0-27.761778 22.072889-50.289778 49.265778-50.289777 27.136 0 49.208889 22.528 49.208889 50.289777a49.834667 49.834667 0 0 1-49.208889 50.460445m479.573333 71.68c0-163.043556-143.530667-296.504889-325.404444-308.053333-8.476444-0.455111-17.009778-0.796444-25.543111-0.796445-193.820444 0-350.890667 138.353778-350.890667 308.906667 0 25.713778 3.584 50.631111 10.410667 74.410666 37.717333 134.656 175.786667 234.439111 340.48 234.439112a386.844444 386.844444 0 0 0 155.818666-32.085334l78.791112 54.442667s20.992 14.848 18.944-13.767111l-22.300445-85.276445c73.386667-56.490667 119.694222-139.548444 119.694222-232.163555" fill="#5BC74F" p-id="3264"></path><path d="M248.661333 292.750222a49.777778 49.777778 0 0 1-49.208889-50.289778c0-27.989333 22.072889-50.460444 49.208889-50.460444 27.306667 0 49.265778 22.471111 49.265778 50.460444a49.720889 49.720889 0 0 1-49.265778 50.289778m310.215111-100.750222c27.192889 0 49.265778 22.471111 49.265778 50.460444a49.777778 49.777778 0 0 1-49.265778 50.289778 49.720889 49.720889 0 0 1-49.265777-50.289778c0-27.989333 21.959111-50.460444 49.265777-50.460444m227.157334 113.493333c7.566222 0 15.018667 0.341333 22.414222 0.682667C779.548444 133.518222 610.645333 0.967111 406.528 0.967111 182.215111 0.967111 0.341333 161.166222 0.341333 358.513778c0 110.08 56.547556 208.440889 145.237334 274.090666l-29.980445 114.517334s-10.24 38.001778 28.558222 20.878222l111.957334-77.255111c46.535111 16.440889 97.28 25.543111 150.414222 25.543111 4.551111 0 8.988444-0.341333 13.425778-0.341333a295.708444 295.708444 0 0 1-9.955556-75.832889c0-184.490667 168.789333-334.620444 376.035556-334.620445" fill="#5BC74F" p-id="3265"></path></svg>