<?xml version="1.0" standalone="no"?><!DOCTYPE svg PUBLIC "-//W3C//DTD SVG 1.1//EN" "http://www.w3.org/Graphics/SVG/1.1/DTD/svg11.dtd"><svg t="1536680319030" class="icon" style="" viewBox="0 0 1024 1024" version="1.1" xmlns="http://www.w3.org/2000/svg" p-id="1804" xmlns:xlink="http://www.w3.org/1999/xlink" width="40" height="40"><defs><style type="text/css"></style></defs><path d="M735.1 609.4m-289.1 0a289.1 289.1 0 1 0 578.2 0 289.1 289.1 0 1 0-578.2 0Z" fill="#33BBDD" p-id="1805"></path><path d="M382.4 537.5c22.5-23.1 36.4-54.6 36.4-89.4 0-70.7-57.3-128-128-128s-128 57.3-128 128c0 34.1 13.4 65.1 35.1 88.1-52.1 28.1-89.7 79.5-98.8 140.2-1.4 9.4-2.2 19-2.2 28.9h64c0-70.7 57.3-128 128-128s128 57.3 128 128h64c0-72.2-39.7-135-98.5-167.8z m-91.6-153.4c35.3 0 64 28.7 64 64s-28.7 64-64 64-64-28.7-64-64c0-35.4 28.7-64 64-64zM622.1 416c0-17.7-14.4-32-32.2-32h-63.6c-17.8 0-32.2 14.3-32.2 32s14.4 32 32.2 32h63.6c17.8 0 32.2-14.3 32.2-32zM694.4 448H822c17.8 0 32.2-14.3 32.2-32s-14.4-32-32.2-32H694.4c-17.8 0-32.2 14.3-32.2 32s14.4 32 32.2 32zM827.4 575.9H560.5c-14.7 0-26.6 14.3-26.6 32s11.9 32 26.6 32h266.9c14.7 0 26.6-14.3 26.6-32s-11.9-32-26.6-32z" fill="#333333" p-id="1806"></path><path d="M961 151.2c0-19-14.3-34.4-32-34.4s-32 15.4-32 34.4v614.5c0 1.1 0.1 2.3 0.2 3.4H64V262c0-2.2-0.2-4.4-0.7-6.5 1.4 0.1 2.7 0.2 3.9 0.2H767c1.4 0 2.7-0.1 4.1-0.3h28.6c17.9 0 32.5-14.3 32.5-32s-14.5-32-32.5-32H743c-1.4 0-2.8 0.1-4.1 0.3H67.3c-1.1 0-2.1 0-3.2 0.1-35.3 0-63.9 28.8-63.9 64.3l0.4-0.4c-0.4 2-0.6 4.1-0.6 6.3v535c0 0.7 0 1.3 0.1 2 0 0.7-0.1 1.4-0.1 2.2 0 17.7 13.3 32 29.7 32h868.6c4.3 0 8.5-1 12.2-2.8 28-6 49.1-30.4 50.2-59.8 0.2-1.6 0.3-3.1 0.3-4.8V151.2z" fill="#333333" p-id="1807"></path></svg>