<?xml version="1.0" standalone="no"?><!DOCTYPE svg PUBLIC "-//W3C//DTD SVG 1.1//EN" "http://www.w3.org/Graphics/SVG/1.1/DTD/svg11.dtd"><svg t="1538921716952" class="icon" style="" viewBox="0 0 1024 1024" version="1.1" xmlns="http://www.w3.org/2000/svg" p-id="6930" xmlns:xlink="http://www.w3.org/1999/xlink" width="20" height="20"><defs><style type="text/css"></style></defs><path d="M249.6 755.2h-64V544h64v211.2zM851.2 748.8h-57.6V544h57.6v204.8zM979.2 729.6h-64V326.4h64v403.2zM947.2 825.6c-19.2 0-32-12.8-32-32s12.8-32 32-32 32 12.8 32 32-12.8 32-32 32z" fill="#508CEE" p-id="6931"></path><path d="M512 460.8L851.2 320 512 179.2 172.8 320 512 460.8m0 70.4L19.2 320 512 115.2 1011.2 320 512 531.2zM518.4 889.6c-166.4 0-332.8-44.8-332.8-134.4h64c0 19.2 89.6 76.8 268.8 76.8 179.2 0 268.8-51.2 268.8-76.8h64c0 83.2-166.4 134.4-332.8 134.4z" fill="#508CEE" p-id="6932"></path></svg>