<?xml version="1.0" standalone="no"?><!DOCTYPE svg PUBLIC "-//W3C//DTD SVG 1.1//EN" "http://www.w3.org/Graphics/SVG/1.1/DTD/svg11.dtd"><svg t="1543153539093" class="icon" style="" viewBox="0 0 1024 1024" version="1.1" xmlns="http://www.w3.org/2000/svg" p-id="4845" xmlns:xlink="http://www.w3.org/1999/xlink" width="20" height="20"><defs><style type="text/css"></style></defs><path d="M838.144 851.968H187.392c-57.344 0-104.448-46.592-104.448-104.448V276.48c0-57.344 46.592-104.448 104.448-104.448h650.752c57.344 0 104.448 46.592 104.448 104.448v471.04c0 57.344-47.104 104.448-104.448 104.448zM187.392 214.016c-34.304 0-62.464 28.16-62.464 62.464v471.04c0 34.304 28.16 62.464 62.464 62.464h650.752c34.304 0 62.464-28.16 62.464-62.464V276.48c0-34.304-28.16-62.464-62.464-62.464H187.392z" fill="" p-id="4846"></path><path d="M375.296 558.592c-68.096 0-123.904-55.296-123.904-123.904 0-68.096 55.296-123.904 123.904-123.904 68.096 0 123.904 55.296 123.904 123.904-0.512 68.096-55.808 123.904-123.904 123.904z m0-206.336c-45.056 0-81.92 36.864-81.92 81.92s36.864 81.92 81.92 81.92c45.056 0 81.92-36.864 81.92-81.92s-36.864-81.92-81.92-81.92z" fill="" p-id="4847"></path><path d="M530.432 713.728c-11.264 0-20.992-9.216-20.992-20.992 0-74.24-60.416-134.144-134.144-134.144-74.24 0-134.144 60.416-134.144 134.144 0 11.264-9.216 20.992-20.992 20.992-11.264 0-20.992-9.216-20.992-20.992 0-97.28 78.848-176.128 176.128-176.128 97.28 0 176.128 78.848 176.128 176.128-0.512 11.264-9.728 20.992-20.992 20.992zM809.984 399.36h-225.28c-11.264 0-20.992-9.216-20.992-20.992 0-11.264 9.216-20.992 20.992-20.992h225.28c11.264 0 20.992 9.216 20.992 20.992-0.512 11.776-9.728 20.992-20.992 20.992zM809.984 524.288H605.696c-11.264 0-20.992-9.216-20.992-20.992 0-11.264 9.216-20.992 20.992-20.992h204.288c11.264 0 20.992 9.216 20.992 20.992-0.512 11.776-9.728 20.992-20.992 20.992zM809.984 649.728H626.688c-11.264 0-20.992-9.216-20.992-20.992s9.216-20.992 20.992-20.992h183.296c11.264 0 20.992 9.216 20.992 20.992s-9.728 20.992-20.992 20.992z" fill="" p-id="4848"></path></svg>