<?xml version="1.0" standalone="no"?><!DOCTYPE svg PUBLIC "-//W3C//DTD SVG 1.1//EN" "http://www.w3.org/Graphics/SVG/1.1/DTD/svg11.dtd"><svg t="1536680281905" class="icon" style="" viewBox="0 0 1024 1024" version="1.1" xmlns="http://www.w3.org/2000/svg" p-id="1664" xmlns:xlink="http://www.w3.org/1999/xlink" width="40" height="40"><defs><style type="text/css"></style></defs><path d="M801.418 443.99c-3.396-1.132-132.422-126.761-132.422-126.761l-74.697-90.544s-52.063-53.195-57.723-59.985c-0.697-0.838-1.899-1.59-3.466-2.264h-46.856l-60.595 55.458S233.253 412.3 230.99 416.828c-1.101 2.202-24.431 25.026-48.102 47.889v408.227h194.104V601.31h256.919v271.633h187.313v-416.37c-11.021-7.223-18.894-12.277-19.806-12.583z" fill="#FD4545" p-id="1665"></path><path d="M928.447 522.998L548.453 143.001c-23.481-23.48-61.689-23.481-85.172 0L83.285 522.998c-9.045 9.047-9.045 23.714 0 32.757 9.046 9.049 23.713 9.049 32.758 0l31.364-31.363v328.532c0 33.209 27.017 60.227 60.225 60.227h592.986c33.209 0 60.227-27.018 60.227-60.227V520.91l34.843 34.845a23.091 23.091 0 0 0 16.381 6.782 23.092 23.092 0 0 0 16.379-6.782c9.045-9.043 9.045-23.71-0.001-32.757zM610.68 866.821H397.574v-232.56c0-7.666 6.235-13.9 13.898-13.9h185.31c7.662 0 13.898 6.234 13.898 13.9v232.56z m203.839-13.897c0 7.664-6.235 13.897-13.899 13.897H657.007v-232.56c0-33.21-27.019-60.228-60.226-60.228h-185.31c-33.208 0-60.227 27.018-60.227 60.228v232.561H207.633c-7.663 0-13.896-6.233-13.896-13.897V478.063L496.038 175.76c5.418-5.42 14.235-5.42 19.655 0l298.825 298.823 0.001 378.341z" fill="#333333" p-id="1666"></path></svg>