<?xml version="1.0" standalone="no"?><!DOCTYPE svg PUBLIC "-//W3C//DTD SVG 1.1//EN" "http://www.w3.org/Graphics/SVG/1.1/DTD/svg11.dtd"><svg t="1536680586631" class="icon" style="" viewBox="0 0 1024 1024" version="1.1" xmlns="http://www.w3.org/2000/svg" p-id="1981" xmlns:xlink="http://www.w3.org/1999/xlink" width="40" height="40"><defs><style type="text/css"></style></defs><path d="M613.007164 298.13062h281.544181c15.097913 0 27.325096 12.227183 27.325096 27.325096v281.54418c0 175.539819-142.260617 317.800436-317.800436 317.800436H322.531824c-15.097913 0-27.325096-12.227183-27.325096-27.325096V615.931056c0.106323-175.539819 142.36694-317.800436 317.800436-317.800436z" fill="#FDD547" p-id="1982"></path><path d="M649.050774 950.317932H125.514692C98.402243 950.211608 76.499637 928.309002 76.499637 901.302876V377.766795c0.106323-164.801163 133.648427-298.343267 298.449589-298.44959h523.536082c27.112449 0.106323 49.015056 22.008929 49.015055 49.015055v523.536082C947.287717 816.563181 813.745613 950.105285 649.050774 950.317932zM127.747482 899.070086h521.303292c136.519157-0.106323 247.095421-110.788911 247.201744-247.201744V130.56505H374.949226C238.43007 130.671374 127.853805 241.353961 127.747482 377.766795v521.303291z" fill="#252F44" p-id="1983"></path><path d="M640.01329 386.697955H294.143495c-14.141003 0-25.623923-11.48292-25.623923-25.623923s11.48292-25.623923 25.623923-25.623923H640.01329c14.141003 0 25.623923 11.48292 25.623923 25.623923s-11.48292 25.623923-25.623923 25.623923z m102.495691 153.743536H294.249818c-14.141003 0-25.623923-11.48292-25.623922-25.623923s11.48292-25.623923 25.623922-25.623922h448.259163c14.141003 0 25.623923 11.48292 25.623923 25.623922s-11.48292 25.623923-25.623923 25.623923zM614.389368 694.078704H294.143495c-14.141003 0-25.623923-11.48292-25.623923-25.623923s11.48292-25.623923 25.623923-25.623922h320.245873c14.141003 0 25.623923 11.48292 25.623922 25.623922s-11.376596 25.623923-25.623922 25.623923z" fill="#252F44" p-id="1984"></path></svg>